<?xml version="1.0" encoding="utf-8" ?>
<svg baseProfile="full" height="800" version="1.1" width="1400" xmlns="http://www.w3.org/2000/svg" xmlns:ev="http://www.w3.org/2001/xml-events" xmlns:xlink="http://www.w3.org/1999/xlink"><defs /><line stroke="rgb(255,255,255)" stroke-width="5" x1="700" x2="466" y1="100" y2="300" /><line stroke="rgb(255,255,255)" stroke-width="5" x1="700" x2="933" y1="100" y2="300" /><line stroke="rgb(255,255,255)" stroke-width="5" x1="466" x2="175" y1="300" y2="500" /><line stroke="rgb(255,255,255)" stroke-width="5" x1="466" x2="350" y1="300" y2="500" /><line stroke="rgb(255,255,255)" stroke-width="5" x1="466" x2="525" y1="300" y2="500" /><line stroke="rgb(255,255,255)" stroke-width="5" x1="933" x2="700" y1="300" y2="500" /><line stroke="rgb(255,255,255)" stroke-width="5" x1="933" x2="875" y1="300" y2="500" /><line stroke="rgb(255,255,255)" stroke-width="5" x1="933" x2="1050" y1="300" y2="500" /><line stroke="rgb(255,255,255)" stroke-width="5" x1="933" x2="1225" y1="300" y2="500" /><line stroke="rgb(255,255,255)" stroke-width="5" x1="525" x2="466" y1="500" y2="700" /><line stroke="rgb(255,255,255)" stroke-width="5" x1="525" x2="933" y1="500" y2="700" /><circle cx="700" cy="100" fill="rgb(105,105,105)" r="40" /><text alignment-baseline="middle" fill="white" font-size="25" text-anchor="middle" x="700" y="100">root</text><circle cx="466" cy="300" fill="rgb(105,105,105)" r="40" /><text alignment-baseline="middle" fill="white" font-size="25" text-anchor="middle" x="466" y="300">Dzimums</text><circle cx="933" cy="300" fill="rgb(105,105,105)" r="40" /><text alignment-baseline="middle" fill="white" font-size="25" text-anchor="middle" x="933" y="300">Dzimums</text><circle cx="175" cy="500" fill="rgb(240,255,240)" r="40" /><text alignment-baseline="middle" fill="rgb(0,0,0)" font-size="25" text-anchor="middle" x="175" y="500">0</text><circle cx="350" cy="500" fill="rgb(240,255,240)" r="40" /><text alignment-baseline="middle" fill="rgb(0,0,0)" font-size="25" text-anchor="middle" x="350" y="500">0</text><circle cx="525" cy="500" fill="rgb(105,105,105)" r="40" /><text alignment-baseline="middle" fill="white" font-size="25" text-anchor="middle" x="525" y="500">Vecums</text><circle cx="700" cy="500" fill="rgb(240,255,240)" r="40" /><text alignment-baseline="middle" fill="rgb(0,0,0)" font-size="25" text-anchor="middle" x="700" y="500">1</text><circle cx="875" cy="500" fill="rgb(240,255,240)" r="40" /><text alignment-baseline="middle" fill="rgb(0,0,0)" font-size="25" text-anchor="middle" x="875" y="500">1</text><circle cx="1050" cy="500" fill="rgb(240,255,240)" r="40" /><text alignment-baseline="middle" fill="rgb(0,0,0)" font-size="25" text-anchor="middle" x="1050" y="500">0</text><circle cx="1225" cy="500" fill="rgb(240,255,240)" r="40" /><text alignment-baseline="middle" fill="rgb(0,0,0)" font-size="25" text-anchor="middle" x="1225" y="500">1</text><circle cx="466" cy="700" fill="rgb(240,255,240)" r="40" /><text alignment-baseline="middle" fill="rgb(0,0,0)" font-size="25" text-anchor="middle" x="466" y="700">0</text><circle cx="933" cy="700" fill="rgb(240,255,240)" r="40" /><text alignment-baseline="middle" fill="rgb(0,0,0)" font-size="25" text-anchor="middle" x="933" y="700">1</text></svg>