<?xml version="1.0" encoding="utf-8" ?>
<svg baseProfile="full" height="1120" version="1.1" width="1959" xmlns="http://www.w3.org/2000/svg" xmlns:ev="http://www.w3.org/2001/xml-events" xmlns:xlink="http://www.w3.org/1999/xlink"><defs /><rect fill="#FFFFFF" height="1120" width="1959" x="0" y="0" /><line stroke="#808080" stroke-width="4" x1="979" x2="653" y1="140" y2="420" /><line stroke="#808080" stroke-width="4" x1="979" x2="1306" y1="140" y2="420" /><line stroke="#808080" stroke-width="4" x1="653" x2="244" y1="420" y2="700" /><line stroke="#808080" stroke-width="4" x1="653" x2="489" y1="420" y2="700" /><line stroke="#808080" stroke-width="4" x1="653" x2="735" y1="420" y2="700" /><line stroke="#808080" stroke-width="4" x1="1306" x2="979" y1="420" y2="700" /><line stroke="#808080" stroke-width="4" x1="1306" x2="1225" y1="420" y2="700" /><line stroke="#808080" stroke-width="4" x1="1306" x2="1470" y1="420" y2="700" /><line stroke="#808080" stroke-width="4" x1="1306" x2="1715" y1="420" y2="700" /><line stroke="#808080" stroke-width="4" x1="735" x2="653" y1="700" y2="979" /><line stroke="#808080" stroke-width="4" x1="735" x2="1306" y1="700" y2="979" /><circle cx="979" cy="140" fill="#FFFFFF" r="49" stroke="#000000" stroke-width="1" /><text dominant-baseline="middle" fill="#000000" font-family="Roboto-Bold" font-size="22" text-anchor="middle" x="979" y="140">Dzimums</text><circle cx="653" cy="420" fill="#FFFFFF" r="49" stroke="#000000" stroke-width="1" /><text dominant-baseline="middle" fill="#000000" font-family="Roboto-Bold" font-size="22" text-anchor="middle" x="653" y="420">Vecums</text><circle cx="1306" cy="420" fill="#FFFFFF" r="49" stroke="#000000" stroke-width="1" /><text dominant-baseline="middle" fill="#000000" font-family="Roboto-Bold" font-size="22" text-anchor="middle" x="1306" y="420">Vecums</text><circle cx="244" cy="700" fill="#000000" r="49" /><rect fill="#000000" height="33.4" width="27.2" x="230.4" y="683.3" /><text dominant-baseline="middle" fill="#FFFFFF" font-family="Roboto-Bold" font-size="22" text-anchor="middle" x="244" y="700">0</text><circle cx="489" cy="700" fill="#000000" r="49" /><rect fill="#000000" height="33.4" width="27.2" x="475.4" y="683.3" /><text dominant-baseline="middle" fill="#FFFFFF" font-family="Roboto-Bold" font-size="22" text-anchor="middle" x="489" y="700">0</text><circle cx="735" cy="700" fill="#FFFFFF" r="49" stroke="#000000" stroke-width="1" /><text dominant-baseline="middle" fill="#000000" font-family="Roboto-Bold" font-size="22" text-anchor="middle" x="735" y="700">Dzīvojamā platība</text><circle cx="979" cy="700" fill="#000000" r="49" /><rect fill="#000000" height="33.4" width="27.2" x="965.4" y="683.3" /><text dominant-baseline="middle" fill="#FFFFFF" font-family="Roboto-Bold" font-size="22" text-anchor="middle" x="979" y="700">1</text><circle cx="1225" cy="700" fill="#000000" r="49" /><rect fill="#000000" height="33.4" width="27.2" x="1211.4" y="683.3" /><text dominant-baseline="middle" fill="#FFFFFF" font-family="Roboto-Bold" font-size="22" text-anchor="middle" x="1225" y="700">1</text><circle cx="1470" cy="700" fill="#000000" r="49" /><rect fill="#000000" height="33.4" width="27.2" x="1456.4" y="683.3" /><text dominant-baseline="middle" fill="#FFFFFF" font-family="Roboto-Bold" font-size="22" text-anchor="middle" x="1470" y="700">0</text><circle cx="1715" cy="700" fill="#000000" r="49" /><rect fill="#000000" height="33.4" width="27.2" x="1701.4" y="683.3" /><text dominant-baseline="middle" fill="#FFFFFF" font-family="Roboto-Bold" font-size="22" text-anchor="middle" x="1715" y="700">1</text><circle cx="653" cy="979" fill="#000000" r="49" /><rect fill="#000000" height="33.4" width="27.2" x="639.4" y="962.3" /><text dominant-baseline="middle" fill="#FFFFFF" font-family="Roboto-Bold" font-size="22" text-anchor="middle" x="653" y="979">0</text><circle cx="1306" cy="979" fill="#000000" r="49" /><rect fill="#000000" height="33.4" width="27.2" x="1292.4" y="962.3" /><text dominant-baseline="middle" fill="#FFFFFF" font-family="Roboto-Bold" font-size="22" text-anchor="middle" x="1306" y="979">1</text><rect fill="#FFFFFF" height="33.4" stroke="#000000" stroke-width="0" width="20.2" x="805.9" y="263.3" /><text dominant-baseline="middle" fill="#000000" font-family="Roboto-Bold" font-size="22" text-anchor="middle" x="816" y="280">v</text><rect fill="#FFFFFF" height="33.4" stroke="#000000" stroke-width="0" width="20.2" x="1132.9" y="263.3" /><text dominant-baseline="middle" fill="#000000" font-family="Roboto-Bold" font-size="22" text-anchor="middle" x="1143" y="280">s</text><rect fill="#FFFFFF" height="33.4" stroke="#000000" stroke-width="0" width="33.4" x="431.3" y="543.3" /><text dominant-baseline="middle" fill="#000000" font-family="Roboto-Bold" font-size="22" text-anchor="middle" x="448" y="560">29</text><rect fill="#FFFFFF" height="33.4" stroke="#000000" stroke-width="0" width="33.4" x="554.3" y="543.3" /><text dominant-baseline="middle" fill="#000000" font-family="Roboto-Bold" font-size="22" text-anchor="middle" x="571" y="560">35</text><rect fill="#FFFFFF" height="33.4" stroke="#000000" stroke-width="0" width="33.4" x="676.3" y="543.3" /><text dominant-baseline="middle" fill="#000000" font-family="Roboto-Bold" font-size="22" text-anchor="middle" x="693" y="560">40</text><rect fill="#FFFFFF" height="33.4" stroke="#000000" stroke-width="0" width="33.4" x="1126.3" y="543.3" /><text dominant-baseline="middle" fill="#000000" font-family="Roboto-Bold" font-size="22" text-anchor="middle" x="1143" y="560">48</text><rect fill="#FFFFFF" height="33.4" stroke="#000000" stroke-width="0" width="33.4" x="1248.3" y="543.3" /><text dominant-baseline="middle" fill="#000000" font-family="Roboto-Bold" font-size="22" text-anchor="middle" x="1265" y="560">40</text><rect fill="#FFFFFF" height="33.4" stroke="#000000" stroke-width="0" width="33.4" x="1371.3" y="543.3" /><text dominant-baseline="middle" fill="#000000" font-family="Roboto-Bold" font-size="22" text-anchor="middle" x="1388" y="560">25</text><rect fill="#FFFFFF" height="33.4" stroke="#000000" stroke-width="0" width="33.4" x="1493.3" y="543.3" /><text dominant-baseline="middle" fill="#000000" font-family="Roboto-Bold" font-size="22" text-anchor="middle" x="1510" y="560">35</text><rect fill="#FFFFFF" height="33.4" stroke="#000000" stroke-width="0" width="46.599999999999994" x="669.7" y="823.3" /><text dominant-baseline="middle" fill="#000000" font-family="Roboto-Bold" font-size="22" text-anchor="middle" x="693" y="840">īrē</text><rect fill="#FFFFFF" height="33.4" stroke="#000000" stroke-width="0" width="125.8" x="957.1" y="823.3" /><text dominant-baseline="middle" fill="#000000" font-family="Roboto-Bold" font-size="22" text-anchor="middle" x="1020" y="840">īpašnieks</text></svg>